<?xml version="1.0" standalone="no"?><!DOCTYPE svg PUBLIC "-//W3C//DTD SVG 1.1//EN" "http://www.w3.org/Graphics/SVG/1.1/DTD/svg11.dtd"><svg t="1588138741751" class="icon" viewBox="0 0 1024 1024" version="1.1" xmlns="http://www.w3.org/2000/svg" p-id="10755" xmlns:xlink="http://www.w3.org/1999/xlink" width="128" height="128"><defs><style type="text/css"></style></defs><path d="M0 12.8v998.4h1024V12.8H0z m42.666667 42.666667h938.666666v913.066666H42.666667V55.466667z m204.8 191.146666c0-2.858667 5.973333-4.949333 9.557333-4.949333 27.477333-1.408 67.754667-2.133333 109.994667-2.133333 118.272 0 164.266667 64.853333 164.266666 147.882666 0 108.373333-78.592 154.88-175.018666 154.88-16.213333 0-21.76-0.725333-33.066667-0.725333v163.925333c0 3.541333-1.408 4.949333-4.906667 4.949334H252.416c-3.541333 0-4.906667-1.28-4.906667-4.821334V246.613333z m75.733333 226.645334c9.813333 0.682667 17.578667 0.682667 34.56 0.682666 49.92 0 96.853333-17.578667 96.853333-85.162666 0-54.186667-33.536-81.664-90.538666-81.664a520.533333 520.533333 0 0 0-40.832 1.408v164.864z m367.232-50.688c-33.792 0-45.056 16.896-45.056 30.976 0 15.488 7.68 26.026667 52.778667 49.28 66.901333 32.426667 87.978667 63.36 87.978666 109.098666 0 68.266667-52.053333 104.96-122.453333 104.96-37.376 0-69.12-7.808-87.466667-18.346666-2.773333-1.408-3.413333-3.498667-3.413333-7.04V628.906667c0-4.266667 2.048-5.674667 4.864-3.584a157.184 157.184 0 0 0 85.845333 25.344c33.792 0 47.872-14.08 47.872-33.109334 0-15.488-9.813333-28.885333-52.778666-51.413333-60.586667-29.013333-85.930667-58.453333-85.930667-107.818667 0-54.912 42.922667-100.693333 117.546667-100.693333 36.693333 0 62.464 5.632 76.544 11.946667 3.498667 2.133333 4.266667 5.632 4.266666 8.448v58.453333c0 3.541333-2.133333 5.674667-6.4 4.266667-18.944-11.264-46.933333-18.346667-74.368-18.346667z" fill="" p-id="10756"></path></svg>